<?xml version="1.0" encoding="UTF-8" standalone="no"?>
<!-- Created with Inkscape (http://www.inkscape.org/) -->

<svg
   xmlns:dc="http://purl.org/dc/elements/1.1/"
   xmlns:cc="http://creativecommons.org/ns#"
   xmlns:rdf="http://www.w3.org/1999/02/22-rdf-syntax-ns#"
   xmlns:svg="http://www.w3.org/2000/svg"
   xmlns="http://www.w3.org/2000/svg"
   xmlns:sodipodi="http://sodipodi.sourceforge.net/DTD/sodipodi-0.dtd"
   xmlns:inkscape="http://www.inkscape.org/namespaces/inkscape"
   width="512"
   height="200"
   viewBox="0 0 135.46666 52.916765"
   version="1.1"
   id="svg8"
   inkscape:version="0.92.2 5c3e80d, 2017-08-06"
   sodipodi:docname="sync.svg">
  <defs
     id="defs2" />
  <sodipodi:namedview
     id="base"
     pagecolor="#888888"
     bordercolor="#666666"
     borderopacity="1.0"
     inkscape:pageopacity="1"
     inkscape:pageshadow="2"
     inkscape:zoom="1.63"
     inkscape:cx="77.520788"
     inkscape:cy="120.07781"
     inkscape:document-units="mm"
     inkscape:current-layer="layer1"
     showgrid="false"
     units="px"
     inkscape:window-width="1920"
     inkscape:window-height="1155"
     inkscape:window-x="0"
     inkscape:window-y="1"
     inkscape:window-maximized="1"
     inkscape:pagecheckerboard="false" />
  <metadata
     id="metadata5">
    <rdf:RDF>
      <cc:Work
         rdf:about="">
        <dc:format>image/svg+xml</dc:format>
        <dc:type
           rdf:resource="http://purl.org/dc/dcmitype/StillImage" />
        <dc:title></dc:title>
      </cc:Work>
    </rdf:RDF>
  </metadata>
  <g
     inkscape:label="Layer 1"
     inkscape:groupmode="layer"
     id="layer1"
     transform="translate(0,-244.0832)">
    <g
       style="font-style:normal;font-variant:normal;font-weight:normal;font-stretch:normal;font-size:medium;line-height:125%;font-family:Ubuntu;-inkscape-font-specification:Ubuntu;text-align:start;letter-spacing:0px;word-spacing:0px;writing-mode:lr-tb;text-anchor:start;fill:#222222;fill-opacity:1;stroke:none"
       id="g3838"
       transform="matrix(0.09438907,0,0,0.09438907,-5.9644101,192.78188)">
      <g
         id="g3785">
        <path
           inkscape:connector-curvature="0"
           d="m 153,606.1186 c -7.85377,7.9e-4 -15.6653,3.22779 -21.21875,8.78125 -5.55346,5.55345 -8.78046,13.36498 -8.78125,21.21875 v 370 c 7.9e-4,7.8538 3.22779,15.6653 8.78125,21.2188 5.55345,5.5535 13.36498,8.7804 21.21875,8.7812 h 150 c 7.85377,-8e-4 15.6653,-3.2277 21.21875,-8.7812 5.55346,-5.5535 8.78046,-13.365 8.78125,-21.2188 v -370 c -7.9e-4,-7.85377 -3.22779,-15.6653 -8.78125,-21.21875 C 318.6653,609.34639 310.85377,606.11939 303,606.1186 Z m 59.28125,20 a 5.0062461,5.0062461 0 0 1 0.21875,0 5.0005,5.0005 0 0 1 0.5,0 h 30 a 5.0005,5.0005 0 1 1 0,10 h -30 a 5.0128984,5.0128984 0 0 1 -0.71875,-10 z m -79.28125,30 h 190 v 325 H 133 Z m 95,335 c 8.28427,0 15,6.71573 15,15 0,8.2843 -6.71573,15 -15,15 -8.28427,0 -15,-6.7157 -15,-15 0,-8.28427 6.71573,-15 15,-15 z"
           id="rect3010"
           style="color:#000000;font-style:normal;font-variant:normal;font-weight:normal;font-stretch:normal;font-size:medium;line-height:125%;font-family:Ubuntu;-inkscape-font-specification:Ubuntu;text-indent:0;text-align:start;text-decoration:none;text-decoration-line:none;letter-spacing:0;word-spacing:0;text-transform:none;writing-mode:lr-tb;direction:ltr;baseline-shift:baseline;text-anchor:start;display:inline;overflow:visible;visibility:visible;fill:#222222;fill-opacity:1;fill-rule:nonzero;stroke:none;stroke-width:60;marker:none;enable-background:accumulate" />
      </g>
    </g>
    <g
       style="font-style:normal;font-variant:normal;font-weight:normal;font-stretch:normal;font-size:medium;line-height:125%;font-family:Ubuntu;-inkscape-font-specification:Ubuntu;text-align:start;letter-spacing:0px;word-spacing:0px;writing-mode:lr-tb;text-anchor:start;fill:#222222;fill-opacity:1;stroke:none"
       id="layer1-5"
       transform="matrix(0.09438907,0,0,0.09438907,-9.1135555,206.15519)" />
    <path
       id="path5882"
       d="m 108.99957,274.90079 c 0,0.77401 0.6284,1.40217 1.4023,1.40217 0.77377,0 1.40192,-0.62821 1.40192,-1.40217 0,-0.77385 -0.62815,-1.40207 -1.40192,-1.40207 -0.7739,0 -1.4023,0.62822 -1.4023,1.40207 z m 0,8.97355 c 0,0.7739 0.6284,1.40199 1.4023,1.40199 0.77377,0 1.40192,-0.62809 1.40192,-1.40199 0,-0.77408 -0.62815,-1.40217 -1.40192,-1.40217 -0.7739,0 -1.4023,0.62809 -1.4023,1.40217 z m -19.629183,3.64548 c 0,1.23915 1.003971,2.2433 2.243245,2.2433 h 9.534308 v 1.54767 c -0.27488,0.18512 -0.51044,0.42069 -0.69557,0.69556 h -6.87576 c -0.773899,0 -1.402103,0.62834 -1.402103,1.40225 0,0.77377 0.628204,1.40192 1.402103,1.40192 h 6.87576 c 0.45402,0.67883 1.22249,1.12174 2.09762,1.12174 0.87532,0 1.64297,-0.44291 2.09774,-1.12174 h 7.43643 c 0.77409,0 1.40219,-0.62815 1.40219,-1.40192 0,-0.77391 -0.6281,-1.40225 -1.40219,-1.40225 h -7.43637 c -0.18519,-0.27482 -0.42082,-0.51044 -0.69563,-0.69556 v -1.54767 h 10.09512 c 1.23939,0 2.24323,-1.00415 2.24323,-2.2433 v -16.26445 c 0,-1.23933 -1.00384,-2.24324 -2.24323,-2.24324 H 91.613693 c -1.239335,0 -2.243237,1.00397 -2.243237,2.24324 v 16.26445 z m 4.038194,-15.70364 h 18.843859 c 0.68421,0 1.23397,0.5497 1.23397,1.23403 v 3.70121 c 0,0.68433 -0.54976,1.23403 -1.23397,1.23403 H 93.408581 c -0.684136,0 -1.234023,-0.5497 -1.234023,-1.23403 v -3.70116 c -5.1e-5,-0.68438 0.549887,-1.23408 1.234023,-1.23408 z m 0,8.9735 h 18.843859 c 0.68421,0 1.23397,0.54964 1.23397,1.2339 v 3.70135 c 0,0.68401 -0.54976,1.23402 -1.23397,1.23402 H 93.408581 c -0.684136,0 -1.234023,-0.55001 -1.234023,-1.23402 v -3.70135 c -5.1e-5,-0.68426 0.549887,-1.2339 1.234023,-1.2339 z"
       inkscape:connector-curvature="0"
       style="clip-rule:evenodd;fill:#222222;fill-opacity:1;fill-rule:evenodd;stroke-width:0.06172911" />
    <path
       inkscape:connector-curvature="0"
       d="m 126.25742,268.71972 c 0.23904,-0.83664 0.35856,-1.7928 0.35856,-2.74896 0,-5.97601 -4.78081,-10.75681 -10.75681,-10.75681 -1.43424,0 -2.86848,0.23904 -4.1832,0.83664 -1.67328,-5.3784 -6.69313,-9.20305 -12.549613,-9.20305 -7.290726,0 -13.14721,5.85649 -13.14721,13.14721 0,0.47808 0,0.83665 0.11952,1.31473 -0.47808,-0.11952 -0.836641,-0.11952 -1.314721,-0.11952 -5.976004,0 -10.756808,4.7808 -10.756808,10.7568 0,5.97601 4.780804,10.75681 10.756808,10.75681 h 4.780804 v -2.3904 h -4.780804 c -4.661283,0 -8.366406,-3.70512 -8.366406,-8.36641 0,-4.66128 3.705123,-8.3664 8.366406,-8.3664 0.836641,0 1.553761,0.11952 2.390402,0.35856 l 2.031841,0.5976 -0.47808,-2.03184 c -0.23904,-0.83664 -0.35856,-1.67328 -0.35856,-2.50993 0,-5.976 4.780803,-10.7568 10.756808,-10.7568 5.139363,0 9.681123,3.70512 10.517763,8.84448 l 0.35857,1.67328 1.43424,-0.95616 c 1.31472,-0.83664 2.86848,-1.1952 4.30272,-1.1952 4.66128,0 8.36641,3.70513 8.36641,8.36641 0,1.07568 -0.23904,2.15136 -0.5976,3.22704 l -0.47809,1.43424 1.67329,0.11952 c 2.50992,0.23904 4.42224,2.27088 4.42224,4.78081 0,2.62944 -2.15136,4.7808 -4.7808,4.7808 h -8.36641 v 2.3904 h 8.36641 c 3.94416,0 7.1712,-3.22704 7.1712,-7.1712 -0.11952,-3.22705 -2.27088,-5.97601 -5.25888,-6.81265 z"
       style="fill:#222222;fill-opacity:1;stroke-width:1.19520092"
       id="path5955" />
    <path
       inkscape:connector-curvature="0"
       style="fill:#646464;fill-opacity:1;fill-rule:evenodd;stroke:#000000;stroke-width:0.04980652;stroke-linecap:butt;stroke-linejoin:round;stroke-miterlimit:4;stroke-dasharray:none;stroke-opacity:1"
       d="m 41.457818,264.99621 -7.956516,5.96738 7.956516,5.96739 -0.994564,-3.97826 h 0.788752 18.107963 l -0.823039,3.97826 6.584617,-5.96739 -6.584617,-5.96738 0.823039,3.97826 H 41.252006 40.463254 Z"
       id="path6598" />
  </g>
</svg>
